<svg fill="none" xmlns="http://www.w3.org/2000/svg" viewBox="0 0 18 9">
  <path fill-rule="evenodd" clip-rule="evenodd" d="M1 9C.448 9-.006 8.55.055 8.002a9.001 9.001 0 0117.89 0c.06.549-.393.998-.945.998h-1A7 7 0 102 9H1z" fill="url(#TuF4GsaNha)"/>
  <path fill-rule="evenodd" clip-rule="evenodd" d="M3 9a6 6 0 1112 0h-2a4 4 0 00-8 0H3z" fill="url(#TuF4GsaNhb)"/>
  <path fill-rule="evenodd" clip-rule="evenodd" d="M6 9a3 3 0 016 0h-1.5c-.276 0-.49-.237-.622-.48a1 1 0 00-1.756 0C7.99 8.764 7.776 9 7.5 9H6z" fill="url(#TuF4GsaNhc)"/>
  <defs>
    <linearGradient id="TuF4GsaNha" x1=".989" y1="9" x2="9" y2="9" gradientUnits="userSpaceOnUse">
      <stop stop-color="#1877F2"/>
      <stop offset="1" stop-color="#04A4F4"/>
    </linearGradient>
    <linearGradient id="TuF4GsaNhb" x1="3.984" y1="9" x2="9" y2="9" gradientUnits="userSpaceOnUse">
      <stop stop-color="#2ABBA7"/>
      <stop offset="1" stop-color="#45BD62"/>
    </linearGradient>
    <linearGradient id="TuF4GsaNhc" x1="6.976" y1="9" x2="9" y2="9" gradientUnits="userSpaceOnUse">
      <stop stop-color="#F02849"/>
      <stop offset="1" stop-color="#F5533D"/>
    </linearGradient>
  </defs>
</svg>
